<svg xmlns="http://www.w3.org/2000/svg" viewBox="0 0 1676 1668"><path fill="#7c8083" fill-rule="evenodd" d="M743.0,1666.8C457.6,1632.4 215.5,1462.7 88.0,1208.1C7.5,1047.1 -18.9,863.0 13.1,685.7C78.4,323.9 369.4,48.4 735.3,2.0C756.5,-0.7 914.3,-1.1 936.5,1.5C1162.5,27.9 1371.2,148.0 1508.0,330.5C1669.8,546.3 1718.2,825.6 1638.4,1082.9C1540.9,1396.9 1266.9,1625.7 940.1,1666.0C924.6,1667.9 918.4,1668.0 837.1,1667.9C789.5,1667.8 747.1,1667.3 743.0,1666.8Z"/><path fill="#ff00af" fill-rule="evenodd" d="M794.0,1634.9C743.6,1632.3 685.7,1623.2 635.3,1610.0C616.6,1605.1 599.0,1599.8 599.0,1599.0C599.0,1598.5 601.8,1597.7 605.2,1597.1C639.9,1591.2 693.4,1593.5 786.5,1605.0C840.9,1611.7 863.8,1614.0 877.7,1614.0C910.9,1614.0 978.6,1619.1 983.9,1622.0C986.2,1623.2 946.0,1629.2 913.5,1632.4C878.8,1635.9 832.1,1636.9 794.0,1634.9ZM1032.5,1605.5C990.3,1595.5 959.2,1591.8 901.0,1590.0C862.3,1588.7 852.4,1587.9 792.0,1580.5C661.6,1564.5 608.4,1565.0 567.3,1582.6L559.0,1586.2L540.3,1578.6C529.9,1574.5 518.8,1569.9 515.5,1568.4L509.5,1565.7L512.5,1564.7C514.1,1564.2 520.9,1561.4 527.5,1558.5C563.1,1542.9 592.6,1537.5 641.5,1537.6C692.4,1537.8 729.3,1541.1 817.0,1553.6C891.0,1564.1 904.6,1565.5 943.8,1567.0C972.1,1568.0 1010.4,1567.0 1036.5,1564.6C1081.8,1560.4 1102.6,1561.9 1125.6,1571.0C1129.9,1572.7 1134.6,1574.9 1135.9,1575.9L1138.3,1577.7L1124.9,1583.0C1097.7,1593.6 1051.6,1608.1 1045.6,1607.9C1043.9,1607.9 1038.0,1606.8 1032.5,1605.5ZM1158.3,1560.9C1143.5,1550.8 1124.7,1542.8 1107.2,1539.3C1095.7,1537.0 1065.0,1537.0 1040.5,1539.3C1012.7,1541.9 971.2,1543.1 942.7,1542.0C907.2,1540.6 896.6,1539.5 817.5,1528.5C713.2,1514.0 666.8,1510.4 619.5,1512.9C572.8,1515.4 566.1,1516.9 522.5,1534.0C508.8,1539.4 494.8,1544.6 491.5,1545.5C488.2,1546.5 483.4,1547.9 480.8,1548.6L476.2,1550.0L461.8,1542.4C453.9,1538.2 445.3,1533.5 442.6,1531.9L437.7,1529.2L441.6,1527.2C465.1,1515.2 519.1,1496.6 548.1,1490.5C588.3,1482.0 646.0,1480.6 709.0,1486.5C717.5,1487.3 743.6,1489.3 767.0,1491.0C848.5,1496.8 866.9,1499.0 916.5,1509.4C953.5,1517.1 999.3,1517.7 1058.5,1511.0C1117.3,1504.4 1147.7,1510.0 1180.6,1533.6C1191.4,1541.3 1200.3,1549.1 1199.3,1550.0C1198.5,1550.8 1166.3,1566.1 1165.8,1565.9C1165.6,1565.9 1162.3,1563.7 1158.3,1560.9ZM1222.0,1536.2C1222.0,1535.8 1217.2,1531.4 1211.4,1526.5C1162.4,1485.0 1131.3,1477.9 1040.6,1487.7C1011.4,1490.9 968.3,1491.6 951.0,1489.2C936.4,1487.2 913.3,1483.3 893.5,1479.5C863.4,1473.7 836.9,1470.8 781.5,1467.0C765.0,1465.9 746.8,1464.6 741.0,1464.0C668.2,1456.8 608.5,1456.2 566.1,1462.1C522.8,1468.1 497.5,1476.3 412.5,1511.9C410.9,1512.6 408.6,1511.5 401.7,1507.1C391.3,1500.3 390.4,1502.0 411.0,1489.0C432.0,1475.8 453.5,1465.4 473.6,1458.7C537.6,1437.5 593.3,1425.8 643.3,1423.0C687.0,1420.6 749.2,1419.6 785.0,1420.8C834.4,1422.5 844.4,1424.0 908.0,1439.5C991.6,1459.8 1004.7,1461.2 1071.8,1456.4C1138.4,1451.7 1191.3,1461.8 1228.0,1486.3C1236.6,1492.0 1250.8,1503.8 1254.6,1508.4C1256.1,1510.1 1258.4,1512.2 1259.7,1513.1L1262.1,1514.7L1255.8,1518.7C1245.4,1525.2 1224.4,1537.0 1223.2,1537.0C1222.5,1537.0 1222.0,1536.6 1222.0,1536.2ZM1277.6,1499.5C1273.2,1488.1 1248.6,1467.7 1224.0,1455.0C1185.1,1435.1 1129.8,1426.5 1072.0,1431.6C1061.1,1432.6 1043.4,1433.3 1029.0,1433.3C990.7,1433.3 974.2,1430.7 919.7,1416.4C848.9,1397.8 813.7,1394.1 721.5,1395.4C619.7,1396.8 570.5,1403.4 492.0,1426.5C445.3,1440.2 411.4,1456.4 377.8,1481.2L371.0,1486.2L362.5,1480.0C357.8,1476.6 354.0,1473.5 354.0,1473.1C354.0,1471.4 384.2,1450.3 401.0,1440.3C427.6,1424.5 464.5,1408.1 504.0,1394.5C583.7,1367.1 671.2,1354.2 751.9,1357.9C806.1,1360.3 829.2,1365.1 913.3,1390.9C993.4,1415.5 1000.8,1416.7 1104.5,1419.5C1134.2,1420.3 1163.5,1421.5 1169.5,1422.0C1230.6,1427.6 1267.0,1445.3 1290.3,1480.7C1294.0,1486.3 1297.0,1491.1 1297.0,1491.4C1297.0,1491.7 1293.0,1494.6 1288.1,1497.9L1279.2,1503.9L1277.6,1499.5ZM141.2,1231.5C138.9,1227.4 137.0,1223.8 137.0,1223.4C137.0,1223.1 139.9,1218.0 143.4,1212.1C181.9,1147.8 192.7,1106.9 184.1,1057.0C179.7,1031.3 172.3,1015.3 149.3,981.2C119.9,937.6 112.8,919.6 111.3,885.0C110.3,859.5 113.2,836.9 123.1,795.5C134.6,747.2 136.4,734.1 136.5,698.5C136.5,668.6 135.4,659.3 129.9,642.6C121.4,617.0 102.1,590.3 84.3,579.7C81.4,577.9 79.0,576.1 79.0,575.5C78.9,573.9 88.4,548.0 89.1,548.0C89.4,548.0 90.7,550.6 92.0,553.8C100.1,573.5 116.0,593.6 134.2,607.3C164.8,630.3 178.7,662.6 176.6,705.5C175.5,728.3 172.5,744.3 159.5,797.8C138.2,885.6 141.0,913.2 176.2,960.1C232.9,1035.9 234.0,1109.0 179.5,1191.5C173.4,1200.8 148.2,1236.0 146.2,1238.2C145.8,1238.6 143.6,1235.6 141.2,1231.5ZM114.3,1179.9C106.5,1163.3 106.3,1162.7 108.1,1160.9C116.6,1152.4 123.6,1118.7 122.7,1090.0C121.9,1061.6 119.0,1050.9 97.8,998.1C70.3,929.3 65.6,910.5 65.5,869.0C65.5,841.6 65.6,841.0 74.5,794.9C81.4,759.6 83.0,747.4 83.0,728.7C83.0,698.0 76.1,675.1 61.1,655.6L57.1,650.5L59.6,640.5C63.5,624.6 70.3,601.0 71.0,601.0C72.9,601.0 84.2,611.5 88.6,617.3C104.9,638.9 110.8,657.3 111.7,689.3C112.6,720.7 110.1,741.5 99.9,784.7C87.5,837.5 84.7,861.0 86.9,891.0C89.7,926.5 97.8,950.3 116.8,978.0C145.4,1019.7 151.7,1030.5 156.0,1044.9C164.4,1073.6 163.4,1105.5 153.3,1136.5C149.0,1149.5 125.2,1197.0 122.9,1197.0C122.6,1197.0 118.7,1189.3 114.3,1179.9ZM1566.9,1142.8C1554.5,1134.4 1540.1,1119.2 1535.5,1109.5C1531.6,1101.5 1527.8,1087.1 1523.6,1064.9C1517.5,1032.4 1510.0,1019.4 1483.0,994.7C1469.2,982.1 1461.3,978.0 1448.0,976.5C1430.7,974.5 1404.7,987.9 1333.4,1035.6C1290.4,1064.3 1273.8,1074.6 1254.0,1084.5C1211.2,1105.9 1191.8,1101.3 1198.5,1071.3C1201.2,1059.2 1205.1,1050.3 1218.0,1027.0C1232.1,1001.5 1234.6,995.6 1239.9,974.5C1248.5,940.0 1251.5,917.2 1250.7,891.7C1249.4,850.9 1240.5,838.8 1192.8,813.9C1164.8,799.2 1156.3,793.1 1152.4,784.5C1149.6,778.6 1149.5,775.9 1151.5,769.8C1155.6,757.8 1216.6,684.6 1236.1,668.3C1252.6,654.5 1266.7,648.7 1287.6,646.9C1409.9,636.7 1448.1,625.3 1519.5,577.7C1539.6,564.3 1553.8,553.2 1571.7,537.2C1576.2,533.2 1580.1,530.3 1580.3,530.7C1581.3,532.2 1589.0,552.0 1589.0,552.9C1589.0,554.0 1561.9,571.7 1533.0,589.5C1511.6,602.7 1490.6,616.3 1464.7,633.8C1425.6,660.3 1390.6,668.9 1314.5,670.5C1281.2,671.2 1275.8,672.1 1262.1,679.1C1250.5,685.0 1238.6,694.8 1216.9,716.2C1194.5,738.2 1186.6,750.3 1186.6,762.5C1186.7,776.5 1195.2,784.2 1227.3,799.2C1267.0,817.7 1274.2,825.1 1277.6,851.5C1280.0,870.0 1280.1,904.8 1277.7,919.5C1272.9,948.9 1265.5,968.4 1246.5,1002.0C1221.4,1046.3 1220.9,1072.1 1245.0,1072.4C1251.7,1072.4 1251.8,1072.4 1263.4,1065.0C1275.2,1057.4 1300.1,1039.8 1340.5,1010.4C1352.6,1001.6 1365.6,992.2 1369.4,989.5C1373.2,986.9 1383.8,978.7 1392.9,971.5C1419.8,950.2 1422.5,948.6 1436.3,947.1C1469.5,943.4 1509.7,964.8 1523.5,993.5C1530.0,1007.0 1534.9,1022.6 1542.9,1055.3C1550.9,1087.5 1553.5,1095.9 1558.2,1103.7C1562.4,1110.7 1571.9,1119.7 1579.2,1123.5L1584.8,1126.4L1582.5,1132.5C1581.3,1135.8 1579.2,1140.8 1577.9,1143.6L1575.5,1148.7L1566.9,1142.8ZM89.1,1121.4C63.0,1054.7 45.9,979.0 38.3,898.0C36.1,874.6 35.8,798.4 37.8,776.0C41.0,739.8 47.9,688.8 49.9,686.7C50.3,686.3 51.6,688.7 52.8,692.2C61.2,718.0 60.5,739.0 49.4,793.0C41.9,829.5 41.0,835.7 40.3,857.6C38.8,905.0 46.0,937.4 72.2,1000.8C92.3,1049.7 97.0,1066.5 97.8,1092.1C98.1,1103.4 97.8,1110.4 96.7,1117.7C94.1,1134.0 94.0,1134.0 89.1,1121.4ZM1588.2,1100.0C1579.5,1093.7 1576.2,1086.5 1571.5,1064.0C1559.7,1006.9 1545.9,973.6 1526.4,955.1C1499.8,929.7 1458.1,916.8 1425.3,923.6C1410.5,926.6 1404.0,930.5 1375.9,953.1C1366.7,960.5 1346.9,974.8 1331.9,984.9C1298.5,1007.4 1283.3,1018.3 1267.2,1031.2C1260.5,1036.6 1255.0,1040.6 1255.0,1040.1C1255.0,1038.4 1262.6,1021.9 1266.7,1014.5C1268.9,1010.6 1275.0,999.8 1280.4,990.4C1298.3,958.8 1305.3,929.7 1305.3,887.0C1305.3,844.8 1296.5,816.4 1277.8,797.9C1270.9,791.1 1261.5,786.1 1242.5,779.0C1208.0,766.1 1206.2,762.5 1224.6,742.5C1241.0,724.7 1269.4,700.9 1277.5,698.3C1281.6,697.0 1289.8,696.6 1321.0,696.0C1359.8,695.2 1368.2,694.6 1386.5,690.9C1414.3,685.4 1442.7,674.0 1472.8,656.4C1485.6,648.9 1567.9,597.5 1584.5,586.6C1591.7,581.9 1597.8,578.4 1598.2,578.8C1598.5,579.2 1600.6,585.2 1602.8,592.3L1606.8,605.0L1600.6,610.9C1578.1,632.6 1560.2,643.7 1523.0,659.4C1512.8,663.7 1494.8,672.2 1483.0,678.4C1441.7,700.0 1429.5,704.7 1401.0,710.4C1349.3,720.8 1334.9,721.1 1300.1,712.4C1296.3,711.4 1291.4,710.9 1287.8,711.2C1280.7,711.7 1278.1,714.1 1265.7,730.9C1249.7,752.5 1251.2,758.6 1276.0,774.7C1315.8,800.7 1332.0,828.4 1332.0,870.5C1332.0,889.9 1329.5,899.7 1318.1,925.7C1305.3,954.8 1305.2,968.3 1317.8,974.7C1326.6,979.1 1332.4,975.4 1357.6,949.3C1397.9,907.4 1409.0,901.0 1439.4,902.3C1484.2,904.2 1544.8,923.9 1560.8,941.8C1576.4,959.3 1583.0,976.4 1586.5,1008.3C1589.1,1032.5 1596.5,1056.6 1603.5,1064.0L1605.8,1066.5L1599.9,1084.8C1596.6,1094.8 1593.5,1103.0 1593.1,1103.0C1592.7,1103.0 1590.4,1101.6 1588.2,1100.0ZM1613.7,1021.5C1612.8,1016.5 1611.1,1005.3 1610.0,996.5C1604.2,951.1 1583.9,920.9 1547.5,903.5C1517.4,889.0 1464.9,877.0 1432.0,877.0C1403.3,877.0 1395.5,880.9 1366.3,909.2C1349.8,925.2 1342.0,932.0 1342.0,930.6C1342.0,930.4 1343.4,926.4 1345.1,921.8C1370.9,852.1 1355.4,802.5 1293.2,755.8L1284.0,748.9L1288.7,743.4C1294.0,737.4 1294.2,737.4 1303.5,739.5C1329.6,745.6 1344.3,745.3 1389.0,738.0C1430.1,731.2 1444.4,726.2 1495.0,700.8C1508.5,694.0 1525.6,686.3 1533.0,683.6C1565.9,671.7 1578.6,664.3 1603.0,642.6C1609.1,637.2 1614.3,632.9 1614.4,633.1C1614.9,633.7 1620.0,655.5 1620.0,657.1C1620.0,658.7 1608.7,669.1 1601.7,673.9C1599.0,675.7 1584.6,683.2 1569.7,690.5C1528.6,710.7 1486.9,726.6 1426.9,745.0C1383.7,758.2 1373.6,762.6 1363.4,772.8C1337.1,799.1 1359.1,842.4 1406.5,857.3C1425.9,863.4 1445.5,865.8 1486.0,867.0C1540.3,868.6 1563.1,873.7 1587.1,889.6C1598.6,897.2 1602.2,903.0 1613.1,931.6C1617.0,942.0 1622.2,954.4 1624.6,959.1L1628.9,967.8L1626.1,983.1C1623.1,998.8 1617.4,1024.8 1616.0,1028.4C1615.5,1029.9 1614.8,1027.8 1613.7,1021.5ZM1631.7,910.0C1619.1,878.9 1602.5,864.3 1566.5,852.6C1543.3,845.0 1531.1,843.4 1487.0,842.0C1452.0,840.9 1441.1,839.9 1425.9,836.5C1400.9,831.0 1386.4,821.7 1379.5,806.9C1376.0,799.4 1376.2,795.9 1380.4,791.2C1386.8,784.2 1396.7,780.2 1438.7,767.6C1464.2,759.9 1523.9,738.7 1545.0,729.8C1565.3,721.2 1606.9,700.3 1616.5,693.9C1620.9,690.9 1625.0,688.2 1625.6,687.8C1626.4,687.3 1627.3,690.5 1628.5,697.9L1630.2,708.8L1627.9,712.2C1607.4,741.6 1570.8,757.4 1502.0,766.5C1430.0,776.0 1396.0,787.7 1396.0,802.9C1396.0,813.3 1401.2,816.9 1417.3,817.6C1423.5,817.8 1434.1,818.5 1441.0,819.0C1447.9,819.6 1462.4,820.4 1473.2,821.0C1484.0,821.5 1502.9,823.1 1515.2,824.5C1527.5,825.9 1546.8,827.5 1558.2,828.0C1580.5,829.0 1591.3,830.7 1600.0,834.6C1605.2,836.9 1606.3,838.1 1619.5,856.2C1627.2,866.7 1634.7,877.1 1636.1,879.4L1638.7,883.5L1637.4,899.5C1636.7,908.3 1635.9,916.4 1635.8,917.4C1635.6,918.5 1633.8,915.2 1631.7,910.0ZM1635.0,834.7C1629.6,826.3 1620.9,817.2 1614.8,813.6C1606.1,808.5 1583.2,805.0 1558.3,805.0C1543.5,804.9 1537.2,804.3 1501.5,799.6C1491.0,798.3 1477.8,796.8 1472.0,796.3L1461.5,795.5L1469.5,793.2C1481.3,789.9 1497.8,787.3 1522.0,785.0C1563.4,781.1 1580.2,776.9 1605.2,764.4C1615.8,759.1 1624.6,753.3 1630.7,747.7L1634.9,743.9L1635.4,748.2C1637.9,766.7 1640.3,809.5 1639.8,828.1L1639.5,841.8L1635.0,834.7ZM414.0,456.1C404.2,453.0 401.4,449.6 378.0,412.5C327.7,333.1 312.2,316.1 266.2,290.0C261.0,287.1 256.6,284.0 256.3,283.2C255.9,282.4 258.2,279.3 262.2,275.3L268.7,268.9L274.9,271.0C283.2,273.7 297.8,281.2 311.4,289.5C349.8,312.8 373.0,338.6 393.5,380.7C404.4,403.1 410.9,409.3 423.4,409.2C442.8,409.0 462.7,394.6 486.0,364.1C520.5,318.9 574.9,262.5 612.3,233.2C663.7,193.0 700.4,175.1 765.8,158.4C796.1,150.7 804.7,145.8 810.5,132.9C818.7,114.5 806.8,90.0 784.1,78.6C780.0,76.5 768.5,72.5 758.1,69.5C732.1,62.2 726.4,58.6 722.6,47.2C720.2,40.3 720.0,40.4 731.4,39.0L741.9,37.7L747.2,42.5C754.4,49.0 764.2,53.6 777.9,57.1C817.1,67.1 823.2,72.3 834.1,105.5C838.8,120.0 840.6,137.7 838.0,144.0C834.7,151.9 821.9,157.3 780.2,168.5C758.5,174.2 755.8,175.3 727.0,189.0C640.4,230.3 612.9,252.9 518.0,361.0C469.4,416.3 437.2,450.0 429.0,453.8C423.7,456.3 417.5,457.2 414.0,456.1ZM1373.4,416.9C1360.7,414.8 1347.5,408.1 1338.0,399.0C1327.7,389.1 1320.5,376.4 1303.0,337.6C1291.6,312.2 1284.4,301.4 1270.4,288.0C1251.3,270.0 1233.6,260.7 1179.5,240.5C1151.9,230.2 1127.4,219.0 1116.9,211.9C1097.6,198.9 1079.9,173.1 1070.1,144.1C1060.3,115.0 1058.5,96.1 1063.5,74.5C1065.8,64.2 1064.9,64.6 1078.3,68.7L1090.1,72.4L1089.5,77.5C1088.6,84.5 1090.6,107.3 1093.0,116.7C1098.2,137.5 1116.6,164.5 1137.9,182.7C1156.4,198.5 1174.0,208.2 1207.5,221.0C1251.2,237.7 1269.9,249.5 1287.5,271.3C1296.1,281.9 1301.4,291.0 1315.0,318.0C1328.8,345.4 1335.6,355.8 1347.9,368.1C1364.5,384.6 1378.4,391.0 1397.9,391.0C1414.5,391.0 1425.2,387.8 1454.5,374.2C1471.8,366.2 1483.8,361.0 1485.1,361.0C1486.0,361.0 1498.0,377.6 1498.0,378.8C1498.0,379.3 1489.0,383.6 1478.0,388.4C1425.4,411.4 1393.0,420.2 1373.4,416.9ZM424.2,384.3C423.5,384.0 419.7,377.2 415.7,369.2C389.5,316.3 357.2,283.8 303.5,256.4L289.3,249.1L294.4,244.3C297.2,241.6 301.0,238.2 302.7,236.6L306.0,233.6L314.7,236.9C334.9,244.5 356.2,256.4 381.7,274.5C400.8,288.0 415.5,302.8 425.6,318.9C432.4,329.6 437.2,333.2 444.4,333.2C455.8,333.2 464.2,325.0 503.5,275.5C536.7,233.7 552.5,219.3 596.1,190.2C653.0,152.3 677.5,140.8 714.9,134.5C734.4,131.2 739.2,128.1 739.2,118.7C739.2,111.4 736.6,108.8 723.2,102.4C700.7,91.6 688.2,79.2 676.6,56.3C672.5,48.0 671.4,49.2 684.8,46.5C695.5,44.3 695.7,44.4 696.5,48.9C698.1,58.2 708.1,73.9 716.4,79.8C723.0,84.6 732.0,88.3 744.0,91.4C765.7,97.0 774.2,100.5 781.1,106.7C791.7,116.2 789.8,126.5 776.9,129.8C719.7,144.5 706.2,149.0 676.4,163.5C632.8,184.6 600.4,207.4 558.7,246.5C531.7,271.8 494.4,313.0 466.8,348.0C448.5,371.2 430.3,386.7 424.2,384.3ZM1386.7,364.6C1368.6,359.4 1356.0,344.1 1334.7,301.8C1318.1,268.8 1309.9,256.7 1293.7,241.3C1273.8,222.4 1259.3,214.2 1218.1,198.4C1181.5,184.4 1167.8,176.6 1150.2,159.6C1130.8,140.9 1120.1,124.1 1116.7,107.0C1114.9,98.2 1113.4,81.0 1114.5,81.0C1114.8,81.0 1123.3,84.2 1133.1,88.1L1151.1,95.3L1153.4,99.9C1175.1,142.5 1193.7,159.2 1256.5,192.0C1299.3,214.4 1310.4,224.3 1337.3,264.5C1365.7,307.0 1381.8,322.5 1403.5,328.0C1417.8,331.7 1426.8,330.6 1443.2,323.5L1452.9,319.3L1455.3,321.9C1456.6,323.3 1460.5,328.0 1463.9,332.3C1470.0,339.8 1470.1,340.0 1467.8,340.9C1466.5,341.4 1456.7,345.8 1446.0,350.8C1415.3,364.9 1400.2,368.4 1386.7,364.6ZM1409.5,304.1C1397.3,301.1 1384.7,288.3 1360.2,253.7C1322.4,200.5 1314.6,193.5 1264.1,167.6C1227.8,149.0 1218.8,143.0 1203.8,127.9C1197.3,121.4 1192.0,115.6 1192.0,115.0C1192.0,113.7 1211.2,123.6 1234.3,136.7C1302.8,175.5 1368.2,226.8 1421.3,283.4L1436.2,299.3L1433.7,300.7C1427.4,303.9 1415.8,305.6 1409.5,304.1ZM440.5,296.3C421.3,270.7 386.2,243.6 346.3,223.8L328.1,214.7L339.2,205.9C345.3,201.0 350.8,197.0 351.4,197.0C353.4,197.1 376.3,209.4 383.9,214.5C394.0,221.3 406.3,232.4 420.0,247.0C433.5,261.5 438.4,265.0 444.9,265.0C452.6,265.0 454.6,263.2 468.2,245.0C478.4,231.3 489.8,218.5 506.2,202.4C531.4,177.5 552.7,163.8 593.5,146.0C630.8,129.7 640.4,123.1 646.8,109.2C652.2,97.3 651.0,90.9 639.5,71.8C635.4,65.1 632.4,59.3 632.8,58.9C633.8,58.0 647.9,54.5 648.2,55.1C648.4,55.3 650.5,59.5 652.8,64.5C660.0,79.3 669.3,92.5 680.6,103.6L690.8,113.8L684.2,115.5C648.1,125.1 570.9,172.2 527.1,211.3C515.7,221.5 506.6,231.8 481.6,263.0C460.9,288.7 448.7,303.2 447.1,303.8C446.6,303.9 443.7,300.6 440.5,296.3ZM427.0,221.4C410.7,206.1 393.1,192.1 381.1,185.0C377.2,182.7 374.0,180.5 374.0,180.1C374.0,179.8 377.8,176.9 382.5,173.7L390.9,168.0L400.6,173.7C405.9,176.9 412.8,181.6 415.9,184.2C439.8,204.2 443.7,204.5 456.5,187.5C472.8,165.8 513.3,136.8 555.5,116.5C575.5,106.9 582.0,102.6 586.1,96.2C590.4,89.4 590.8,82.4 587.4,73.5C586.9,72.2 606.5,65.0 607.4,66.1C607.5,66.3 609.4,69.7 611.5,73.5C613.6,77.3 617.5,83.9 620.2,88.1C622.8,92.3 625.0,96.2 625.0,96.9C625.0,103.4 607.6,114.1 575.2,127.6C546.2,139.6 533.1,147.2 512.0,164.0C498.2,175.0 471.7,201.9 456.0,220.8C449.1,229.1 443.3,235.9 443.0,235.9C442.7,235.9 435.5,229.4 427.0,221.4ZM435.0,167.5C433.7,166.1 428.6,162.2 423.7,158.9C418.8,155.5 415.2,152.4 415.7,152.0C417.2,150.5 445.5,134.3 461.0,126.0C481.0,115.2 498.5,106.9 524.0,96.1C554.9,82.9 561.8,80.4 563.3,81.9C565.1,83.7 563.3,84.8 537.5,97.6C503.0,114.8 468.4,138.7 447.6,159.9C442.2,165.5 437.6,170.0 437.5,170.0C437.4,170.0 436.3,168.9 435.0,167.5Z"/><path fill="#000" fill-rule="evenodd" d="M743.0,1666.8C457.6,1632.4 215.5,1462.7 88.0,1208.1C7.5,1047.1 -18.9,863.0 13.1,685.7C78.4,323.9 369.4,48.4 735.3,2.0C756.5,-0.7 914.3,-1.1 936.5,1.5C1162.5,27.9 1371.2,148.0 1508.0,330.5C1669.8,546.3 1718.2,825.6 1638.4,1082.9C1540.9,1396.9 1266.9,1625.7 940.1,1666.0C924.6,1667.9 918.4,1668.0 837.1,1667.9C789.5,1667.8 747.1,1667.3 743.0,1666.8ZM880.6,1635.0C918.1,1632.8 987.7,1624.0 983.9,1622.0C978.6,1619.1 910.9,1614.0 877.7,1614.0C863.8,1614.0 840.9,1611.7 786.5,1605.0C693.4,1593.5 639.9,1591.2 605.2,1597.1C601.8,1597.7 599.0,1598.5 599.0,1599.0C599.0,1599.4 604.6,1601.4 611.5,1603.4C697.8,1628.8 793.4,1640.0 880.6,1635.0ZM1062.6,1604.0C1081.2,1598.6 1108.5,1589.4 1124.9,1583.0L1138.3,1577.7L1135.9,1575.9C1134.6,1574.9 1129.9,1572.7 1125.6,1571.0C1102.6,1561.9 1081.8,1560.4 1036.5,1564.6C1010.4,1567.0 972.1,1568.0 943.8,1567.0C904.6,1565.5 891.0,1564.1 817.0,1553.6C729.3,1541.1 692.4,1537.8 641.5,1537.6C592.6,1537.5 563.1,1542.9 527.5,1558.5C520.9,1561.4 514.1,1564.2 512.5,1564.7L509.5,1565.7L515.5,1568.4C518.8,1569.9 529.9,1574.5 540.3,1578.6L559.0,1586.2L567.3,1582.6C608.4,1565.0 661.6,1564.5 792.0,1580.5C852.4,1587.9 862.3,1588.7 901.0,1590.0C959.2,1591.8 990.3,1595.5 1032.5,1605.5C1045.9,1608.6 1046.6,1608.6 1062.6,1604.0ZM1182.3,1558.4C1191.2,1554.2 1198.9,1550.5 1199.3,1550.0C1200.3,1549.1 1191.4,1541.3 1180.6,1533.6C1147.7,1510.0 1117.3,1504.4 1058.5,1511.0C999.3,1517.7 953.5,1517.1 916.5,1509.4C866.9,1499.0 848.5,1496.8 767.0,1491.0C743.6,1489.3 717.5,1487.3 709.0,1486.5C646.0,1480.6 588.3,1482.0 548.1,1490.5C519.1,1496.6 465.1,1515.2 441.6,1527.2L437.7,1529.2L442.6,1531.9C445.3,1533.5 453.9,1538.2 461.8,1542.4L476.2,1550.0L480.8,1548.6C483.4,1547.9 488.2,1546.5 491.5,1545.5C494.8,1544.6 508.8,1539.4 522.5,1534.0C566.1,1516.9 572.8,1515.4 619.5,1512.9C666.8,1510.4 713.2,1514.0 817.5,1528.5C896.6,1539.5 907.2,1540.6 942.7,1542.0C971.2,1543.1 1012.7,1541.9 1040.5,1539.3C1065.0,1537.0 1095.7,1537.0 1107.2,1539.3C1124.7,1542.8 1143.5,1550.8 1158.3,1560.9C1162.3,1563.7 1165.6,1565.9 1165.8,1565.9C1165.9,1566.0 1173.4,1562.6 1182.3,1558.4ZM1236.9,1529.8C1243.8,1525.9 1252.3,1520.9 1255.8,1518.7L1262.1,1514.7L1259.7,1513.1C1258.4,1512.2 1256.1,1510.1 1254.6,1508.4C1250.8,1503.8 1236.6,1492.0 1228.0,1486.3C1191.3,1461.8 1138.4,1451.7 1071.8,1456.4C1004.7,1461.2 991.6,1459.8 908.0,1439.5C844.4,1424.0 834.4,1422.5 785.0,1420.8C749.2,1419.6 687.0,1420.6 643.3,1423.0C593.3,1425.8 537.6,1437.5 473.6,1458.7C453.5,1465.4 432.0,1475.8 411.0,1489.0C390.4,1502.0 391.3,1500.3 401.7,1507.1C408.6,1511.5 410.9,1512.6 412.5,1511.9C497.5,1476.3 522.8,1468.1 566.1,1462.1C608.5,1456.2 668.2,1456.8 741.0,1464.0C746.8,1464.6 765.0,1465.9 781.5,1467.0C836.9,1470.8 863.4,1473.7 893.5,1479.5C913.3,1483.3 936.4,1487.2 951.0,1489.2C968.3,1491.6 1011.4,1490.9 1040.6,1487.7C1131.3,1477.9 1162.4,1485.0 1211.4,1526.5C1217.2,1531.4 1222.0,1535.8 1222.0,1536.2C1222.0,1537.9 1224.8,1536.7 1236.9,1529.8ZM1297.0,1491.4C1297.0,1491.1 1294.0,1486.3 1290.3,1480.7C1267.0,1445.3 1230.6,1427.6 1169.5,1422.0C1163.5,1421.5 1134.2,1420.3 1104.5,1419.5C1000.8,1416.7 993.4,1415.5 913.3,1390.9C829.2,1365.1 806.1,1360.3 751.9,1357.9C671.2,1354.2 583.7,1367.1 504.0,1394.5C464.5,1408.1 427.6,1424.5 401.0,1440.3C384.2,1450.3 354.0,1471.4 354.0,1473.1C354.0,1473.5 357.8,1476.6 362.5,1480.0L371.0,1486.2L377.8,1481.2C411.4,1456.4 445.3,1440.2 492.0,1426.5C570.5,1403.4 619.7,1396.8 721.5,1395.4C813.7,1394.1 848.9,1397.8 919.7,1416.4C974.2,1430.7 990.7,1433.3 1029.0,1433.3C1043.4,1433.3 1061.1,1432.6 1072.0,1431.6C1129.8,1426.5 1185.1,1435.1 1224.0,1455.0C1248.6,1467.7 1273.2,1488.1 1277.6,1499.5L1279.2,1503.9L1288.1,1497.9C1293.0,1494.6 1297.0,1491.7 1297.0,1491.4ZM1335.0,1463.4C1426.4,1391.8 1502.4,1298.3 1555.2,1192.7C1565.9,1171.4 1566.7,1169.0 1563.1,1169.0C1559.3,1169.0 1542.4,1156.5 1532.0,1146.1C1513.9,1127.8 1508.5,1115.9 1501.0,1078.5C1493.8,1042.4 1491.0,1036.9 1469.1,1015.8C1457.0,1004.0 1453.0,1002.0 1442.6,1002.0C1432.0,1002.1 1417.6,1010.2 1349.5,1055.0C1288.9,1094.8 1266.7,1107.8 1244.0,1116.6C1218.1,1126.6 1195.6,1124.6 1182.9,1111.1C1174.7,1102.5 1172.7,1096.7 1172.6,1082.0C1172.5,1063.7 1177.1,1049.7 1192.0,1022.5C1212.8,984.7 1215.1,978.2 1221.5,940.0C1228.3,898.8 1228.5,884.8 1222.3,869.3C1217.4,856.9 1210.1,851.1 1180.6,835.8C1134.6,811.8 1120.4,794.3 1126.4,768.8C1130.0,753.5 1135.8,744.7 1168.0,705.8C1194.6,673.8 1214.7,653.0 1229.9,641.7C1249.9,626.8 1255.1,625.4 1304.5,620.5C1407.7,610.3 1441.3,599.8 1503.5,558.5C1533.6,538.5 1569.6,507.7 1568.5,503.1C1566.5,495.2 1538.8,442.6 1522.2,415.2C1512.1,398.7 1513.6,399.3 1499.7,405.9C1406.7,450.0 1357.8,453.2 1321.5,417.5C1307.8,403.9 1297.3,386.4 1281.5,350.5C1272.4,329.8 1264.9,317.9 1254.6,307.6C1238.4,291.5 1225.1,284.7 1164.0,261.4C1095.2,235.2 1073.8,216.9 1051.7,165.0C1035.2,126.2 1032.3,99.3 1040.5,61.3C1041.3,57.6 1042.9,58.2 1015.9,51.9C948.2,36.2 864.0,28.9 797.0,32.9L786.5,33.5L796.8,36.2C825.1,43.7 843.2,58.5 852.7,82.1C860.5,101.5 865.9,128.9 864.3,141.1C860.9,166.4 846.0,177.0 795.1,190.0C771.9,195.9 750.2,204.8 714.0,223.1C667.7,246.4 647.3,261.5 604.9,303.9C578.1,330.7 563.2,347.0 517.5,399.0C471.6,451.3 453.6,469.1 439.9,476.1C413.7,489.3 391.7,480.4 371.2,448.4C367.7,443.0 357.5,426.8 348.4,412.6C310.6,353.0 294.7,335.7 258.8,314.8C252.8,311.3 245.6,307.0 242.8,305.2L237.7,301.9L233.1,307.1C204.4,339.7 168.8,389.3 146.5,427.5C134.4,448.2 116.1,483.0 114.5,488.4C113.8,490.8 112.4,494.3 111.4,496.1C108.5,501.7 108.2,520.5 110.9,531.1C116.6,553.7 128.2,570.0 155.5,593.5C173.7,609.2 180.4,617.4 188.5,633.9C198.8,654.7 202.6,674.3 201.7,703.0C200.9,729.2 199.0,740.3 186.0,794.0C173.2,846.9 170.3,864.8 171.3,885.5C172.3,906.8 176.5,917.8 191.8,938.5C241.4,1005.5 256.0,1067.5 236.9,1129.5C225.9,1165.2 206.5,1199.5 169.8,1248.3C164.9,1254.7 160.7,1260.6 160.4,1261.4C159.8,1262.9 179.4,1292.7 193.4,1311.4C229.7,1360.3 274.2,1407.8 318.7,1445.2L332.9,1457.1L344.7,1448.2C373.1,1426.8 397.3,1412.3 429.0,1397.7C530.2,1351.2 644.3,1328.1 748.8,1332.8C810.4,1335.7 835.4,1340.5 914.5,1365.2C996.5,1390.7 1016.5,1393.9 1094.0,1394.0C1185.4,1394.1 1230.4,1402.3 1269.2,1425.9C1286.9,1436.6 1300.6,1450.2 1312.3,1468.7C1315.2,1473.1 1317.9,1476.5 1318.5,1476.2C1319.0,1475.9 1326.5,1470.1 1335.0,1463.4ZM159.5,1220.0C189.8,1178.3 203.3,1153.7 212.4,1123.6C229.0,1068.8 217.0,1014.6 176.2,960.1C141.0,913.2 138.2,885.6 159.5,797.8C172.5,744.3 175.5,728.3 176.6,705.5C178.7,662.6 164.8,630.3 134.2,607.3C116.0,593.6 100.1,573.5 92.0,553.8C90.7,550.6 89.4,548.0 89.1,548.0C88.4,548.0 78.9,573.9 79.0,575.5C79.0,576.1 81.4,577.9 84.3,579.7C102.1,590.3 121.4,617.0 129.9,642.6C135.4,659.3 136.5,668.6 136.5,698.5C136.4,734.1 134.6,747.2 123.1,795.5C113.2,836.9 110.3,859.5 111.3,885.0C112.8,919.6 119.9,937.6 149.3,981.2C172.3,1015.3 179.7,1031.3 184.1,1057.0C192.7,1106.9 181.9,1147.8 143.4,1212.1C139.9,1218.0 137.0,1223.1 137.0,1223.4C137.0,1225.0 145.6,1238.8 146.2,1238.2C146.5,1237.8 152.5,1229.6 159.5,1220.0ZM128.9,1187.2C154.1,1142.1 161.4,1119.4 161.4,1086.0C161.4,1074.2 160.9,1066.9 159.7,1060.5C154.6,1034.9 150.9,1027.7 116.8,978.0C97.8,950.3 89.7,926.5 86.9,891.0C84.7,861.0 87.5,837.5 99.9,784.7C110.1,741.5 112.6,720.7 111.7,689.3C110.8,657.3 104.9,638.9 88.6,617.3C84.2,611.5 72.9,601.0 71.0,601.0C70.3,601.0 63.5,624.6 59.6,640.5L57.1,650.5L61.1,655.6C76.1,675.1 83.0,698.0 83.0,728.7C83.0,747.4 81.4,759.6 74.5,794.9C65.6,841.0 65.5,841.6 65.5,869.0C65.6,910.5 70.3,929.3 97.8,998.1C119.0,1050.9 121.9,1061.6 122.7,1090.0C123.6,1118.7 116.6,1152.4 108.1,1160.9C106.3,1162.7 106.5,1163.3 114.3,1179.9C118.7,1189.3 122.6,1197.0 122.9,1197.0C123.2,1197.0 125.9,1192.6 128.9,1187.2ZM1582.5,1132.5L1584.8,1126.4L1579.2,1123.5C1571.9,1119.7 1562.4,1110.7 1558.2,1103.7C1553.5,1095.9 1550.9,1087.5 1542.9,1055.3C1534.9,1022.6 1530.0,1007.0 1523.5,993.5C1509.7,964.8 1469.5,943.4 1436.3,947.1C1422.5,948.6 1419.8,950.2 1392.9,971.5C1383.8,978.7 1373.2,986.9 1369.4,989.5C1365.6,992.2 1352.6,1001.6 1340.5,1010.4C1300.1,1039.8 1275.2,1057.4 1263.4,1065.0C1251.8,1072.4 1251.7,1072.4 1245.0,1072.4C1220.9,1072.1 1221.4,1046.3 1246.5,1002.0C1272.1,956.7 1279.5,930.8 1279.4,886.5C1279.2,828.6 1274.8,821.3 1227.3,799.2C1195.2,784.2 1186.7,776.5 1186.6,762.5C1186.6,750.3 1194.5,738.2 1216.9,716.2C1238.6,694.8 1250.5,685.0 1262.1,679.1C1275.8,672.1 1281.2,671.2 1314.5,670.5C1390.6,668.9 1425.6,660.3 1464.7,633.8C1490.6,616.3 1511.6,602.7 1533.0,589.5C1561.9,571.7 1589.0,554.0 1589.0,552.9C1589.0,552.0 1581.3,532.2 1580.3,530.7C1580.1,530.3 1576.2,533.2 1571.7,537.2C1553.8,553.2 1539.6,564.3 1519.5,577.7C1448.1,625.3 1409.9,636.7 1287.6,646.9C1266.7,648.7 1252.6,654.5 1236.1,668.3C1216.6,684.6 1155.6,757.8 1151.5,769.8C1149.5,775.9 1149.6,778.6 1152.4,784.5C1156.3,793.1 1164.8,799.2 1192.8,813.9C1240.5,838.8 1249.4,850.9 1250.7,891.7C1251.5,917.2 1248.5,940.0 1239.9,974.5C1234.6,995.6 1232.1,1001.5 1218.0,1027.0C1205.1,1050.3 1201.2,1059.2 1198.5,1071.3C1191.8,1101.3 1211.2,1105.9 1254.0,1084.5C1273.8,1074.6 1290.4,1064.3 1333.4,1035.6C1389.7,997.9 1421.9,979.5 1436.5,976.9C1452.4,974.0 1466.0,979.2 1483.0,994.7C1510.0,1019.4 1517.5,1032.4 1523.6,1064.9C1527.8,1087.1 1531.6,1101.5 1535.5,1109.5C1540.1,1119.2 1554.5,1134.4 1566.9,1142.8L1575.5,1148.7L1577.9,1143.6C1579.2,1140.8 1581.3,1135.8 1582.5,1132.5ZM96.7,1117.7C97.8,1110.4 98.1,1103.4 97.8,1092.1C97.0,1066.5 92.3,1049.7 72.2,1000.8C46.0,937.4 38.8,905.0 40.3,857.6C41.0,835.7 41.9,829.5 49.4,793.0C60.5,739.0 61.2,718.0 52.8,692.2C51.6,688.7 50.3,686.3 49.9,686.7C47.9,688.8 41.0,739.8 37.8,776.0C35.8,798.4 36.1,874.6 38.3,898.0C45.9,979.0 63.0,1054.7 89.1,1121.4C94.0,1134.0 94.1,1134.0 96.7,1117.7ZM1599.9,1084.8L1605.8,1066.5L1603.5,1064.0C1596.5,1056.6 1589.1,1032.5 1586.5,1008.3C1583.0,976.4 1576.4,959.3 1560.8,941.8C1544.8,923.9 1484.2,904.2 1439.4,902.3C1409.0,901.0 1397.9,907.4 1357.6,949.3C1332.4,975.4 1326.6,979.1 1317.8,974.7C1305.2,968.3 1305.3,954.8 1318.1,925.7C1329.5,899.7 1332.0,889.9 1332.0,870.5C1332.0,828.4 1315.8,800.7 1276.0,774.7C1251.2,758.6 1249.7,752.5 1265.7,730.9C1278.1,714.1 1280.7,711.7 1287.8,711.2C1291.4,710.9 1296.3,711.4 1300.1,712.4C1334.9,721.1 1349.3,720.8 1401.0,710.4C1429.5,704.7 1441.7,700.0 1483.0,678.4C1494.8,672.2 1512.8,663.7 1523.0,659.4C1560.2,643.7 1578.1,632.6 1600.6,610.9L1606.8,605.0L1602.8,592.3C1600.6,585.2 1598.5,579.2 1598.2,578.8C1597.8,578.4 1591.7,581.9 1584.5,586.6C1567.9,597.5 1485.6,648.9 1472.8,656.4C1442.7,674.0 1414.3,685.4 1386.5,690.9C1368.2,694.6 1359.8,695.2 1321.0,696.0C1289.8,696.6 1281.6,697.0 1277.5,698.3C1269.4,700.9 1241.0,724.7 1224.6,742.5C1206.2,762.5 1208.0,766.1 1242.5,779.0C1268.1,788.5 1278.0,795.3 1287.4,809.4C1306.1,837.6 1310.9,891.4 1299.4,943.0C1295.4,960.6 1291.0,971.7 1280.4,990.4C1275.0,999.8 1268.9,1010.6 1266.7,1014.5C1262.6,1021.9 1255.0,1038.4 1255.0,1040.1C1255.0,1040.6 1260.5,1036.6 1267.2,1031.2C1283.3,1018.3 1298.5,1007.4 1331.9,984.9C1346.9,974.8 1366.7,960.5 1375.9,953.1C1404.0,930.5 1410.5,926.6 1425.3,923.6C1458.1,916.8 1499.8,929.7 1526.4,955.1C1545.9,973.6 1559.7,1006.9 1571.5,1064.0C1574.8,1080.1 1577.4,1087.9 1581.1,1092.9C1583.8,1096.7 1591.3,1103.0 1593.1,1103.0C1593.5,1103.0 1596.6,1094.8 1599.9,1084.8ZM1620.0,1012.5C1621.7,1004.8 1624.5,991.6 1626.1,983.1L1628.9,967.8L1624.6,959.1C1622.2,954.4 1617.0,942.0 1613.1,931.6C1602.2,903.0 1598.6,897.2 1587.1,889.6C1563.1,873.7 1540.3,868.6 1486.0,867.0C1427.6,865.3 1402.3,859.8 1378.9,843.9C1357.5,829.4 1346.6,801.6 1355.3,783.8C1363.3,767.4 1375.6,760.7 1426.9,745.0C1486.9,726.6 1528.6,710.7 1569.7,690.5C1584.6,683.2 1599.0,675.7 1601.7,673.9C1608.7,669.1 1620.0,658.7 1620.0,657.1C1620.0,655.5 1614.9,633.7 1614.4,633.1C1614.3,632.9 1609.1,637.2 1603.0,642.6C1578.6,664.3 1565.9,671.7 1533.0,683.6C1525.6,686.3 1508.5,694.0 1495.0,700.8C1444.4,726.2 1430.1,731.2 1389.0,738.0C1344.3,745.3 1329.6,745.6 1303.5,739.5C1294.2,737.4 1294.0,737.4 1288.7,743.4L1284.0,748.9L1293.2,755.8C1355.4,802.5 1370.9,852.1 1345.1,921.8C1343.4,926.4 1342.0,930.4 1342.0,930.6C1342.0,932.0 1349.8,925.2 1366.3,909.2C1395.5,880.9 1403.3,877.0 1432.0,877.0C1457.9,877.0 1494.4,884.0 1526.5,895.0C1558.4,906.0 1575.8,918.4 1590.6,940.6C1601.7,957.3 1606.9,972.3 1610.0,996.5C1612.9,1019.3 1615.1,1030.9 1616.0,1028.4C1616.4,1027.3 1618.2,1020.1 1620.0,1012.5ZM1637.4,899.5L1638.7,883.5L1636.1,879.4C1634.7,877.1 1627.2,866.7 1619.5,856.2C1606.3,838.1 1605.2,836.9 1600.0,834.6C1591.3,830.7 1580.5,829.0 1558.2,828.0C1546.8,827.5 1527.5,825.9 1515.2,824.5C1502.9,823.1 1484.0,821.5 1473.2,821.0C1462.4,820.4 1447.9,819.6 1441.0,819.0C1434.1,818.5 1423.5,817.8 1417.3,817.6C1404.7,817.1 1401.0,815.8 1398.0,810.7C1386.2,791.4 1419.2,777.4 1502.0,766.5C1570.8,757.4 1607.4,741.6 1627.9,712.2L1630.2,708.8L1628.5,697.9C1627.3,690.5 1626.4,687.3 1625.6,687.8C1625.0,688.2 1620.9,690.9 1616.5,693.9C1606.9,700.3 1565.3,721.2 1545.0,729.8C1523.9,738.7 1464.2,759.9 1438.7,767.6C1396.7,780.2 1386.8,784.2 1380.4,791.2C1370.8,801.9 1384.8,822.1 1408.4,831.5C1425.5,838.2 1443.4,840.6 1487.0,842.0C1531.1,843.4 1543.3,845.0 1566.5,852.6C1602.5,864.3 1619.1,878.9 1631.7,910.0C1633.8,915.2 1635.6,918.5 1635.8,917.4C1635.9,916.4 1636.7,908.3 1637.4,899.5ZM1639.0,793.5C1638.0,773.5 1636.7,757.6 1635.4,748.2L1634.9,743.9L1630.7,747.7C1624.6,753.3 1615.8,759.1 1605.2,764.4C1580.2,776.9 1563.4,781.1 1522.0,785.0C1497.8,787.3 1481.3,789.9 1469.5,793.2L1461.5,795.5L1472.0,796.3C1477.8,796.8 1491.0,798.3 1501.5,799.6C1537.2,804.3 1543.5,804.9 1558.3,805.0C1583.2,805.0 1606.1,808.5 1614.8,813.6C1620.9,817.2 1629.6,826.3 1635.0,834.7L1639.5,841.8L1639.8,828.1C1640.0,820.6 1639.6,805.0 1639.0,793.5ZM429.0,453.8C437.2,450.0 469.4,416.3 518.0,361.0C612.9,252.9 640.4,230.3 727.0,189.0C755.8,175.3 758.5,174.2 780.2,168.5C821.9,157.3 834.7,151.9 838.0,144.0C840.6,137.7 838.8,120.0 834.1,105.5C823.2,72.3 817.1,67.1 777.9,57.1C764.2,53.6 754.4,49.0 747.2,42.5L741.9,37.7L731.4,39.0C720.0,40.4 720.2,40.3 722.6,47.2C726.4,58.6 732.1,62.2 758.1,69.5C781.9,76.3 789.2,79.9 799.1,89.9C809.1,99.9 812.2,106.3 812.8,118.1C813.2,125.9 813.0,127.3 810.5,132.9C804.7,145.8 796.1,150.7 765.8,158.4C700.4,175.1 663.7,193.0 612.3,233.2C574.9,262.5 520.5,318.9 486.0,364.1C462.7,394.6 442.8,409.0 423.4,409.2C410.9,409.3 404.4,403.1 393.5,380.7C373.0,338.6 349.8,312.8 311.4,289.5C297.8,281.2 283.2,273.7 274.9,271.0L268.7,268.9L262.2,275.3C258.2,279.3 255.9,282.4 256.3,283.2C256.6,284.0 261.0,287.1 266.2,290.0C312.2,316.1 327.7,333.1 378.0,412.5C389.1,430.1 399.8,446.2 401.8,448.3C410.1,457.0 418.6,458.7 429.0,453.8ZM1398.0,416.0C1411.6,413.2 1429.2,408.0 1444.9,402.1C1462.3,395.5 1498.0,379.9 1498.0,378.8C1498.0,377.6 1486.0,361.0 1485.1,361.0C1483.8,361.0 1471.8,366.2 1454.5,374.2C1425.2,387.8 1414.5,391.0 1397.9,391.0C1378.4,391.0 1364.5,384.6 1347.9,368.1C1335.6,355.8 1328.8,345.4 1315.0,318.0C1285.0,258.4 1270.0,244.9 1207.5,221.0C1174.0,208.2 1156.4,198.5 1137.9,182.7C1116.6,164.5 1098.2,137.5 1093.0,116.7C1090.6,107.3 1088.6,84.5 1089.5,77.5L1090.1,72.4L1078.3,68.7C1064.9,64.6 1065.8,64.2 1063.5,74.5C1058.5,96.1 1060.3,115.0 1070.1,144.1C1079.9,173.1 1097.6,198.9 1116.9,211.9C1127.4,219.0 1151.9,230.2 1179.5,240.5C1233.6,260.7 1251.3,270.0 1270.4,288.0C1284.4,301.4 1291.6,312.2 1303.0,337.6C1324.4,385.1 1332.9,398.0 1349.4,407.9C1364.8,417.1 1380.0,419.7 1398.0,416.0ZM435.0,380.3C443.0,375.2 454.7,363.4 466.8,348.0C549.1,243.6 626.7,179.9 709.0,149.2C720.1,145.0 742.5,138.6 776.9,129.8C789.8,126.5 791.7,116.2 781.1,106.7C774.2,100.5 765.7,97.0 744.0,91.4C732.0,88.3 723.0,84.6 716.4,79.8C708.1,73.9 698.1,58.2 696.5,48.9C695.7,44.4 695.5,44.3 684.8,46.5C671.4,49.2 672.5,48.0 676.6,56.3C688.2,79.2 700.7,91.6 723.2,102.4C736.6,108.8 739.2,111.4 739.2,118.7C739.2,128.1 734.4,131.2 714.9,134.5C677.5,140.8 653.0,152.3 596.1,190.2C552.5,219.3 536.7,233.7 503.5,275.5C464.2,325.0 455.8,333.2 444.4,333.2C437.2,333.2 432.4,329.6 425.6,318.9C415.5,302.8 400.8,288.0 381.7,274.5C356.2,256.4 334.9,244.5 314.7,236.9L306.0,233.6L302.7,236.6C301.0,238.2 297.2,241.6 294.4,244.3L289.3,249.1L303.5,256.4C357.2,283.8 389.5,316.3 415.7,369.2C419.7,377.2 423.5,384.0 424.2,384.3C426.2,385.1 429.0,384.0 435.0,380.3ZM1418.0,362.5C1422.7,361.0 1435.3,355.7 1446.0,350.8C1456.7,345.8 1466.5,341.4 1467.8,340.9C1470.1,340.0 1470.0,339.8 1463.9,332.3C1460.5,328.0 1456.6,323.3 1455.3,321.9L1452.9,319.3L1443.2,323.5C1426.8,330.6 1417.8,331.7 1403.5,328.0C1381.8,322.5 1365.7,307.0 1337.3,264.5C1310.4,224.3 1299.3,214.4 1256.5,192.0C1193.7,159.2 1175.1,142.5 1153.4,99.9L1151.1,95.3L1133.1,88.1C1123.3,84.2 1114.8,81.0 1114.5,81.0C1113.4,81.0 1114.9,98.2 1116.7,107.0C1120.1,124.1 1130.8,140.9 1150.2,159.6C1167.8,176.6 1181.5,184.4 1218.1,198.4C1259.3,214.2 1273.8,222.4 1293.7,241.3C1309.9,256.7 1318.1,268.8 1334.7,301.8C1356.0,344.1 1368.6,359.4 1386.7,364.6C1394.1,366.7 1407.7,365.8 1418.0,362.5ZM1424.8,303.5C1428.3,302.7 1432.3,301.4 1433.7,300.7L1436.2,299.3L1421.3,283.4C1368.2,226.8 1302.8,175.5 1234.3,136.7C1211.2,123.6 1192.0,113.7 1192.0,115.0C1192.0,115.6 1197.3,121.4 1203.8,127.9C1218.8,143.0 1227.8,149.0 1264.1,167.6C1314.6,193.5 1322.4,200.5 1360.2,253.7C1392.7,299.5 1404.2,308.3 1424.8,303.5ZM454.1,296.5C457.5,292.6 469.9,277.6 481.6,263.0C506.6,231.8 515.7,221.5 527.1,211.3C570.9,172.2 648.1,125.1 684.2,115.5L690.8,113.8L680.6,103.6C669.3,92.5 660.0,79.3 652.8,64.5C650.5,59.5 648.4,55.3 648.2,55.1C647.9,54.5 633.8,58.0 632.8,58.9C632.4,59.3 635.4,65.1 639.5,71.8C651.0,90.9 652.2,97.3 646.8,109.2C640.4,123.1 630.8,129.7 593.5,146.0C552.7,163.8 531.4,177.5 506.2,202.4C489.8,218.5 478.4,231.3 468.2,245.0C454.6,263.2 452.6,265.0 444.9,265.0C438.4,265.0 433.5,261.5 420.0,247.0C406.3,232.4 394.0,221.3 383.9,214.5C376.3,209.4 353.4,197.1 351.4,197.0C350.8,197.0 345.3,201.0 339.2,205.9L328.1,214.7L346.3,223.8C386.2,243.6 421.3,270.7 440.5,296.3C443.7,300.6 446.6,303.9 447.1,303.8C447.5,303.6 450.6,300.4 454.1,296.5ZM456.0,220.8C471.7,201.9 498.2,175.0 512.0,164.0C533.1,147.2 546.2,139.6 575.2,127.6C607.6,114.1 625.0,103.4 625.0,96.9C625.0,96.2 622.8,92.3 620.2,88.1C617.5,83.9 613.6,77.3 611.5,73.5C609.4,69.7 607.5,66.3 607.4,66.1C606.5,65.0 586.9,72.2 587.4,73.5C590.8,82.4 590.4,89.4 586.1,96.2C582.0,102.6 575.5,106.9 555.5,116.5C513.3,136.8 472.8,165.8 456.5,187.5C450.1,196.1 448.2,197.8 443.9,199.0C437.5,200.9 433.0,198.5 415.9,184.2C412.8,181.6 405.9,176.9 400.6,173.7L390.9,168.0L382.5,173.7C377.8,176.9 374.0,179.8 374.0,180.1C374.0,180.5 377.2,182.7 381.1,185.0C393.1,192.1 410.7,206.1 427.0,221.4C435.5,229.4 442.7,235.9 443.0,235.9C443.3,235.9 449.1,229.1 456.0,220.8ZM447.6,159.9C468.4,138.7 503.0,114.8 537.5,97.6C563.3,84.8 565.1,83.7 563.3,81.9C560.6,79.2 497.6,106.3 461.0,126.0C445.5,134.3 417.2,150.5 415.7,152.0C415.2,152.4 418.8,155.5 423.7,158.9C428.6,162.2 433.7,166.1 435.0,167.5C436.3,168.9 437.4,170.0 437.5,170.0C437.6,170.0 442.2,165.5 447.6,159.9Z"/></svg>