<svg xmlns="http://www.w3.org/2000/svg" viewBox="0 0 1299 1299"><g transform="translate(47.0 0.0)"><path d="M825.3 1228.7L804.1 1207.5L762.3 1154.0L720.5 1100.6L717.4 1099.9L714.3 1099.3L580.4 1164.4C506.8 1200.3 439.3 1233.0 430.5 1237.3L414.5 1245.0L394.7 1225.3L375.0 1205.5L330.7 1130.5L286.5 1055.4L190.5 1000.0L94.5 944.6L75.4 925.8L56.4 906.9L75.2 803.2L94.1 699.5L72.0 545.5C59.9 460.8 50.0 390.5 50.0 389.3L50.0 387.1L134.9 298.3C181.6 249.4 227.1 202.3 236.1 193.4L252.5 177.3L321.5 133.7C359.4 109.8 402.2 82.8 416.5 73.7L442.5 57.1L463.3 77.8L484.1 98.5L514.6 150.1L545.1 201.8L548.2 200.6C549.9 200.0 591.3 166.0 640.3 125.0L729.3 50.5L731.9 50.6C733.3 50.7 786.2 64.1 849.5 80.4L964.5 110.1L980.1 125.8L995.8 141.5L979.8 244.8C971.0 301.6 964.0 348.3 964.3 348.6C964.6 348.9 985.7 345.7 1011.1 341.5L1057.3 333.8L1074.0 350.6L1090.7 367.5L1101.3 395.5C1112.1 424.3 1118.1 443.1 1139.0 515.3C1154.4 568.6 1152.2 562.9 1178.0 616.0L1200.0 661.4L1200.0 664.5L1200.0 667.6L1173.8 693.6C1159.3 707.9 1121.3 743.8 1089.3 773.4L1031.1 827.1L1030.1 830.2C1029.5 831.9 1029.0 834.0 1029.0 834.8C1029.0 835.7 1028.0 837.4 1026.8 838.7L1024.6 841.0L1027.9 870.8C1032.2 910.9 1031.1 905.7 1049.6 967.1C1058.6 997.1 1066.0 1022.3 1066.0 1023.1C1066.0 1024.4 884.9 1212.0 857.4 1239.2L846.5 1250.0L825.3 1228.7Z" fill="#8c7b6b"/><path d="M581.0 979.5L566.8 965.3L596.4 914.9L626.1 864.5L640.8 849.9L655.5 835.2L707.5 832.2C736.1 830.6 760.7 828.8 762.2 828.2C763.6 827.6 779.0 811.5 796.3 792.3C813.6 773.2 833.2 752.1 839.9 745.5L852.0 733.5L866.6 748.0C879.1 760.5 901.0 786.4 901.0 788.8C901.0 789.2 899.0 791.5 896.6 793.9C891.2 799.2 891.9 796.5 886.4 834.9L881.8 866.5L881.3 907.6L880.7 948.8L866.6 962.8L852.5 976.8L811.0 965.9C788.2 959.9 766.1 954.3 762.0 953.4L754.5 951.8L747.5 952.5C743.6 952.9 715.9 956.7 685.8 961.0L631.1 968.9L627.8 970.5C626.0 971.5 620.2 976.4 615.0 981.5L605.5 990.8L600.3 992.3L595.2 993.7L581.0 979.5ZM284.0 544.9C282.6 544.5 270.0 542.0 256.0 539.5C242.0 537.0 224.4 533.6 217.0 531.9L203.5 528.8L189.2 514.7C181.4 506.9 175.0 499.9 175.0 499.1C175.0 498.4 180.4 472.5 187.0 441.6L199.0 385.5L277.1 307.7L355.3 229.9L363.9 238.3L372.5 246.7L405.5 263.3L438.5 280.0L452.0 292.4C459.4 299.2 469.7 309.1 474.9 314.3L484.3 323.8L425.2 395.1L366.2 466.5L326.3 506.1L286.5 545.8L284.0 544.9Z" fill="#5e5044"/><path d="M821.9 1230.3L797.3 1205.5L758.5 1155.8C735.7 1126.5 718.6 1105.5 717.0 1104.7L714.3 1103.3L579.4 1168.9C505.2 1205.0 437.6 1237.9 429.2 1241.9L413.9 1249.3L392.4 1227.9L371.0 1206.5L328.8 1135.0C305.7 1095.7 286.1 1062.3 285.2 1060.9L283.7 1058.3L187.6 1002.6L91.5 947.0L71.8 927.2L52.2 907.5L71.1 803.5L90.1 699.5L68.0 545.5C55.9 460.8 46.0 390.3 46.0 388.7L46.0 386.0L130.4 297.7C176.8 249.2 223.3 201.1 233.6 190.9L252.5 172.3L312.5 134.4C345.5 113.6 388.0 86.8 406.9 74.8C425.8 62.8 441.8 53.0 442.4 53.0C443.0 53.0 453.7 63.2 466.2 75.8L488.8 98.5L517.1 146.5C549.4 201.5 545.9 196.1 548.7 195.4C550.0 195.0 590.9 161.3 639.7 120.3L728.5 45.9L731.7 46.4C733.4 46.6 786.8 60.2 850.2 76.6L965.5 106.3L982.7 123.4L999.9 140.5L984.5 240.0C976.0 294.7 968.9 340.7 968.6 342.1L968.1 344.6L1013.1 337.1L1058.1 329.7L1075.9 347.4L1093.7 365.2L1104.7 394.3C1116.1 424.3 1121.9 442.6 1143.0 515.3C1158.4 568.6 1156.2 562.9 1182.0 616.0L1204.0 661.4L1204.0 664.9L1204.0 668.5L1177.8 694.7C1163.3 709.0 1125.6 744.7 1094.0 773.9L1036.5 827.1L1034.9 831.5C1034.1 834.0 1032.3 837.1 1031.0 838.5L1028.6 841.0L1031.9 870.8C1036.2 910.9 1035.1 905.7 1053.6 967.1C1062.6 997.1 1070.0 1022.5 1070.0 1023.6L1070.0 1025.7L971.6 1127.1C917.5 1182.9 867.2 1234.5 859.8 1241.8L846.5 1255.0L821.9 1230.3ZM930.5 1119.0C976.0 1072.0 1016.0 1030.7 1019.3 1027.3L1025.3 1021.1L1010.2 970.8C993.3 914.8 993.6 915.9 988.4 868.6L984.7 834.8L986.4 829.3L988.2 823.8L994.9 817.1C998.5 813.5 1036.9 777.7 1080.1 737.7L1158.8 664.9L1138.4 622.7C1115.7 575.7 1117.2 579.7 1099.0 517.0C1079.1 448.2 1074.2 433.0 1062.5 402.5C1056.6 387.1 1051.7 374.4 1051.7 374.3C1051.6 374.3 1029.0 378.0 1001.5 382.6C974.0 387.3 949.0 391.1 945.9 391.1L940.3 391.2L936.4 389.2C927.9 384.8 922.0 376.0 922.0 367.8C922.0 365.4 929.4 315.2 938.6 256.1L955.1 148.7L954.0 148.0C953.4 147.6 903.7 134.6 843.5 119.0L734.0 90.7L732.3 92.1C731.3 92.9 690.5 127.0 641.6 167.9C592.7 208.8 551.0 243.1 548.9 244.2C540.7 248.1 531.8 245.7 523.8 237.4L519.2 232.5L481.5 168.5C460.7 133.3 443.2 103.9 442.6 103.2L441.4 102.0L418.9 116.2C406.6 124.0 363.9 151.0 324.0 176.2L251.5 222.1L170.3 307.2L89.0 392.3L89.5 394.4C90.7 399.2 133.0 696.5 133.0 699.7C133.0 701.5 124.9 747.7 115.0 802.2C105.0 856.7 97.3 901.7 97.7 902.0C98.1 902.4 145.8 930.0 203.5 963.4L308.5 1024.0L313.4 1029.3L318.3 1034.5L367.0 1117.3C393.9 1162.9 416.0 1200.4 416.3 1200.6C416.6 1200.9 483.5 1168.6 565.1 1128.9L713.5 1056.7L718.0 1056.3L722.6 1055.8L726.0 1057.2C732.5 1059.9 736.0 1064.2 791.2 1134.7C821.4 1173.4 846.5 1205.0 847.0 1204.8C847.4 1204.6 885.0 1166.0 930.5 1119.0ZM553.6 1014.6C548.4 1012.7 540.4 1004.6 538.4 999.3L536.7 995.0L537.4 990.9C538.3 985.4 535.9 989.6 582.7 910.0L624.2 839.5L629.3 834.2L634.5 829.0L639.9 826.9L645.4 824.9L697.3 821.9L749.2 818.9L752.0 815.7C753.6 813.9 774.1 791.1 797.7 765.0L840.5 717.5L845.0 715.2C853.6 710.9 860.3 712.6 868.7 721.3C873.8 726.5 916.3 781.2 920.0 787.3L922.0 790.5L922.0 796.1L922.0 801.6L919.1 806.1C915.6 811.7 909.9 816.5 904.2 818.7L900.0 820.3L899.5 822.4C899.3 823.6 897.6 834.6 895.9 847.0L892.6 869.5L892.1 923.0L891.5 976.5L889.8 979.6C887.2 984.3 879.3 990.8 874.7 992.1C869.4 993.5 872.0 994.1 808.3 977.4L753.1 962.9L742.3 964.4C736.4 965.2 711.7 968.6 687.5 972.1L643.5 978.3L634.0 987.5C622.8 998.3 623.5 997.9 591.0 1007.4C561.7 1016.0 559.0 1016.5 553.6 1014.6ZM614.0 949.9C618.7 945.1 624.5 940.2 626.8 939.1L631.2 936.9L686.3 928.8L741.5 920.8L751.5 920.8L761.5 920.7L805.0 932.2L848.5 943.7L849.1 905.6L849.8 867.5L854.4 834.6C859.4 799.4 860.0 797.3 865.3 791.4L868.7 787.5L860.3 776.8L851.9 766.0L812.0 810.3C789.4 835.3 770.4 855.7 768.0 857.2C761.6 861.3 757.6 861.7 705.0 864.6C678.3 866.0 656.4 867.3 656.4 867.4C656.3 867.4 644.9 886.9 631.0 910.5C617.2 934.1 604.9 955.0 603.8 956.7L601.8 960.0L603.7 959.3C604.7 958.9 609.3 954.7 614.0 949.9ZM284.4 561.8C282.1 561.3 278.5 559.4 276.2 557.5L272.2 554.0L247.3 549.5C216.5 543.9 180.3 535.7 175.3 533.1C167.1 528.9 161.0 520.1 161.0 512.5C161.0 508.1 188.9 376.2 191.0 370.3C191.6 368.7 224.2 335.4 266.3 293.2L340.5 218.9L345.5 217.5C353.6 215.3 359.6 214.8 364.2 216.0L368.5 217.2L375.5 224.3C379.4 228.3 384.5 233.7 386.9 236.3L391.2 241.1L421.3 256.2C460.1 275.6 464.3 278.5 491.3 304.8L498.0 311.5L499.6 315.7L501.3 320.0L500.7 324.0C499.8 330.8 498.4 332.6 433.3 411.2L370.2 487.5L334.1 523.7C314.2 543.6 297.2 560.3 296.2 560.8C293.3 562.4 288.7 562.7 284.4 561.8ZM393.9 394.5L451.9 324.5L445.2 318.3L438.5 312.0L404.5 294.8L370.5 277.7L362.8 270.2L355.1 262.7L320.3 296.8C301.1 315.5 273.3 343.2 258.3 358.2L231.1 385.5L219.5 439.3C213.2 468.9 207.7 494.2 207.4 495.4L206.9 497.7L221.2 500.8C229.1 502.5 245.8 505.7 258.5 508.0C271.1 510.2 282.6 512.4 284.0 512.9L286.5 513.8L311.2 489.1L336.0 464.5L393.9 394.5Z" fill="#000"/></g></svg>